<?xml version="1.0" standalone="no"?>
<!DOCTYPE svg PUBLIC "-//W3C//DTD SVG 20010904//EN"
 "http://www.w3.org/TR/2001/REC-SVG-20010904/DTD/svg10.dtd">
<svg version="1.0" xmlns="http://www.w3.org/2000/svg"
 width="539.000000pt" height="158.000000pt" viewBox="0 0 539.000000 158.000000"
 preserveAspectRatio="xMidYMid meet">

<g transform="translate(0.000000,158.000000) scale(0.100000,-0.100000)"
fill="#000000" stroke="none">
<path d="M1265 1544 c-71 -8 -136 -16 -143 -19 -10 -3 -12 -147 -10 -692 l3
-688 145 0 145 0 5 347 5 347 40 42 c68 71 133 87 182 45 l28 -24 5 -379 5
-378 145 0 145 0 0 405 c-1 361 -2 410 -18 449 -27 68 -61 107 -123 137 -47
23 -69 28 -133 27 -94 -1 -148 -20 -223 -78 l-58 -45 0 260 c0 143 -3 259 -7
259 -5 -1 -66 -8 -138 -15z"/>
<path d="M20 1325 l0 -115 165 0 165 0 0 -530 0 -530 150 0 150 0 0 530 0 530
160 0 c157 0 160 0 164 23 5 23 26 184 26 199 0 4 -220 8 -490 8 l-490 0 0
-115z"/>
<path d="M4872 1169 c-71 -9 -170 -51 -220 -93 -110 -93 -122 -272 -27 -383
43 -51 141 -102 274 -143 115 -35 161 -68 161 -115 0 -71 -50 -99 -167 -93
-73 4 -93 9 -163 45 l-79 40 -66 -73 c-36 -40 -65 -77 -65 -82 0 -17 58 -60
123 -91 207 -97 479 -75 622 50 60 53 87 111 93 194 11 177 -62 255 -318 340
-75 25 -147 55 -158 66 -28 25 -29 79 -3 103 45 41 204 26 297 -29 l42 -24 51
80 c28 44 51 84 51 89 0 14 -95 70 -154 90 -54 20 -171 41 -211 39 -11 -1 -49
-5 -83 -10z"/>
<path d="M2470 1154 c-203 -55 -330 -255 -330 -522 0 -260 137 -451 359 -498
171 -36 382 9 499 106 l23 19 -60 80 -61 79 -71 -36 c-59 -30 -84 -37 -146
-40 -142 -8 -212 46 -237 181 l-7 37 304 0 304 0 6 53 c8 63 -6 192 -28 264
-25 82 -91 172 -162 220 -102 68 -264 92 -393 57z m228 -212 c34 -25 57 -75
67 -149 l7 -53 -167 0 -167 0 7 48 c19 126 78 186 176 179 27 -2 59 -13 77
-25z"/>
<path d="M3111 1128 c0 -7 46 -229 103 -493 l102 -480 175 -3 175 -2 59 332
c32 183 61 344 65 358 5 18 11 -2 25 -75 10 -55 39 -215 64 -355 l46 -255 178
-3 c97 -1 177 0 177 2 0 2 45 222 100 489 55 266 100 487 100 490 0 4 -62 7
-139 7 l-138 0 -6 -27 c-2 -16 -29 -185 -58 -377 -36 -234 -56 -341 -61 -325
-6 21 -128 707 -128 723 0 3 -65 6 -144 6 -141 0 -144 0 -149 -22 -3 -13 -35
-174 -72 -358 -36 -184 -69 -343 -73 -354 -5 -11 -28 133 -57 358 l-49 376
-148 0 c-112 0 -148 -3 -147 -12z"/>
</g>
</svg>
